<svg width="16" height="16" viewBox="0 0 16 16" fill="none" xmlns="http://www.w3.org/2000/svg">
<path fill-rule="evenodd" clip-rule="evenodd" d="M8.00002 1.00004C6.33816 1.00027 4.73059 1.59173 3.46487 2.66864C2.19915 3.74555 1.35785 5.23764 1.09147 6.87801C0.825092 8.51838 1.15101 10.2 2.01091 11.6221C2.87082 13.0442 4.20863 14.114 5.78502 14.64C6.13502 14.705 6.28502 14.49 6.28502 14.305C6.28502 14.12 6.28502 13.7 6.28502 13.115C4.34002 13.535 3.93002 12.175 3.93002 12.175C3.79325 11.7465 3.50538 11.3822 3.12002 11.15C2.48502 10.72 3.17002 10.725 3.17002 10.725C3.39182 10.7564 3.60353 10.838 3.78897 10.9636C3.97442 11.0893 4.1287 11.2557 4.24002 11.45C4.43369 11.7974 4.75739 12.0536 5.13994 12.1624C5.52248 12.2712 5.93257 12.2236 6.28002 12.03C6.30825 11.6753 6.46465 11.3429 6.72002 11.095C5.17002 10.915 3.53502 10.315 3.53502 7.63504C3.52368 6.93899 3.78163 6.26546 4.25502 5.75504C4.04075 5.15214 4.0658 4.49003 4.32502 3.90504C4.32502 3.90504 4.91002 3.71504 6.25002 4.62004C7.39576 4.30752 8.60428 4.30752 9.75002 4.62004C11.085 3.71504 11.67 3.90504 11.67 3.90504C11.9292 4.49003 11.9543 5.15214 11.74 5.75504C12.2134 6.26546 12.4714 6.93899 12.46 7.63504C12.46 10.325 10.825 10.915 9.26502 11.09C9.43213 11.2594 9.56099 11.4627 9.64293 11.686C9.72487 11.9094 9.75797 12.1478 9.74002 12.385C9.74002 13.32 9.74002 14.075 9.74002 14.305C9.74002 14.535 9.86502 14.71 10.24 14.64C11.8185 14.1133 13.1577 13.0415 14.0174 11.6168C14.8772 10.1921 15.2013 8.50767 14.9317 6.86563C14.662 5.2236 13.8162 3.73133 12.546 2.65643C11.2757 1.58152 9.66404 0.994293 8.00002 1.00004Z" fill="#FFFFFF"/>
</svg>
