<svg width="24" height="24" viewBox="0 0 24 24" fill="none" xmlns="http://www.w3.org/2000/svg">
<path d="M12 1.5C9.56573 1.51658 7.21282 2.37849 5.34381 3.93828C3.4748 5.49807 2.20583 7.65882 1.754 10.0509C1.30216 12.443 1.69553 14.9177 2.86681 17.0518C4.0381 19.1858 5.9145 20.8466 8.17505 21.75C8.02312 20.7558 8.02312 19.7442 8.17505 18.75L9.41255 13.5C9.21671 13.0245 9.11974 12.5142 9.12755 12C9.12755 10.545 9.97505 9.45 11.025 9.45C11.2153 9.44714 11.4038 9.48543 11.5779 9.56224C11.7519 9.63906 11.9073 9.75258 12.0334 9.89504C12.1595 10.0375 12.2533 10.2055 12.3083 10.3876C12.3634 10.5697 12.3785 10.7615 12.3525 10.95C12.3525 11.85 11.7825 13.2 11.4825 14.445C11.418 14.6772 11.4103 14.9215 11.4602 15.1573C11.51 15.3931 11.616 15.6133 11.769 15.7995C11.9221 15.9857 12.1177 16.1322 12.3394 16.2267C12.5611 16.3212 12.8023 16.361 13.0425 16.3425C14.9025 16.3425 16.3425 14.37 16.3425 11.535C16.3612 10.9589 16.2597 10.3853 16.0443 9.85061C15.8289 9.31598 15.5045 8.8321 15.0916 8.42986C14.6788 8.02762 14.1867 7.71584 13.6466 7.51442C13.1066 7.31299 12.5305 7.22634 11.955 7.26C11.3407 7.23361 10.7274 7.33216 10.1523 7.54966C9.57715 7.76717 9.05213 8.09912 8.609 8.52542C8.16587 8.95172 7.81385 9.46351 7.57425 10.0298C7.33465 10.5961 7.21245 11.2051 7.21505 11.82C7.20671 12.6766 7.4692 13.5139 7.96505 14.2125C8.0011 14.2526 8.02679 14.3009 8.03986 14.3532C8.05294 14.4055 8.053 14.4602 8.04005 14.5125C7.95755 14.8425 7.77755 15.5625 7.74755 15.705C7.71755 15.8475 7.59005 15.9375 7.39505 15.8475C6.08255 15.2325 5.26505 13.32 5.26505 11.775C5.26505 8.4675 7.67255 5.4225 12.2025 5.4225C15.84 5.4225 18.675 8.0175 18.675 11.49C18.675 15.105 16.425 18.015 13.2225 18.015C12.7531 18.0313 12.2869 17.9301 11.8665 17.7206C11.4461 17.511 11.0846 17.1997 10.815 16.815L10.1625 19.3125C9.84976 20.2831 9.41101 21.2085 8.85755 22.065C9.87738 22.3664 10.9367 22.513 12 22.5C14.7848 22.5 17.4555 21.3938 19.4247 19.4246C21.3938 17.4555 22.5 14.7848 22.5 12C22.5 9.21523 21.3938 6.54451 19.4247 4.57538C17.4555 2.60625 14.7848 1.5 12 1.5Z" fill="#FFFFFF"/>
</svg>
