<svg width="16" height="16" viewBox="0 0 16 16" fill="none" xmlns="http://www.w3.org/2000/svg">
<path d="M5 15C5.55228 15 6 14.5523 6 14C6 13.4477 5.55228 13 5 13C4.44772 13 4 13.4477 4 14C4 14.5523 4.44772 15 5 15Z" fill="#161616"/>
<path d="M12 15C12.5523 15 13 14.5523 13 14C13 13.4477 12.5523 13 12 13C11.4477 13 11 13.4477 11 14C11 14.5523 11.4477 15 12 15Z" fill="#161616"/>
<path d="M2.4903 1.40195C2.46763 1.2886 2.40639 1.18661 2.317 1.11333C2.22761 1.04005 2.11559 0.999998 2 1H0V2H1.59L3.5097 11.5981C3.53237 11.7114 3.59361 11.8134 3.683 11.8867C3.77239 11.96 3.88441 12 4 12H13V11H4.41L4.01 9H13C13.1138 9 13.2241 8.96121 13.3129 8.89004C13.4016 8.81886 13.4634 8.71955 13.4881 8.6085L14.6222 3.5H13.5985L12.5991 8H3.81L2.4903 1.40195Z" fill="#161616"/>
<path d="M9.205 4L11 2.205L10.295 1.5L8.5 3.295L6.705 1.5L6 2.205L7.795 4L6 5.795L6.705 6.5L8.5 4.705L10.295 6.5L11 5.795L9.205 4Z" fill="#161616"/>
</svg>
